<svg width="52" height="52" viewBox="0 0 52 52" fill="none" xmlns="http://www.w3.org/2000/svg">
<path d="M48.7502 15.834C44.8914 7.00398 36.0802 0.833984 25.8302 0.833984C15.5802 0.833984 6.76766 7.00398 2.91016 15.834" stroke="#00804D" stroke-width="1.66667" stroke-linecap="round" stroke-linejoin="round"/>
<path d="M25.832 13.334C23.454 15.659 21.5653 18.4365 20.2773 21.5027C18.9892 24.5689 18.3278 27.8619 18.3321 31.1877C18.3321 31.8127 18.355 32.4327 18.4008 33.0477C20.7583 35.3706 22.6295 38.1397 23.9054 41.1934C25.1813 44.2471 25.8363 47.5244 25.832 50.834C25.8277 47.5242 26.4825 44.2467 27.7584 41.1927C29.0343 38.1387 30.9057 35.3695 33.2633 33.0465C33.3091 32.4332 33.332 31.8136 33.332 31.1877C33.3363 27.8619 32.6749 24.5689 31.3868 21.5027C30.0988 18.4365 28.2101 15.659 25.832 13.334Z" stroke="#00804D" stroke-width="1.66667" stroke-linecap="round" stroke-linejoin="round"/>
<path d="M0.832031 25.834C0.832031 39.6415 12.0245 50.834 25.832 50.834C25.8364 47.5242 25.1815 44.2467 23.9056 41.1927C22.6298 38.1388 20.7584 35.3695 18.4008 33.0465C13.7258 28.418 7.41062 25.8255 0.832031 25.834Z" stroke="#00804D" stroke-width="1.66667" stroke-linecap="round" stroke-linejoin="round"/>
<path d="M50.8321 25.834C50.8321 39.6415 39.6396 50.834 25.8321 50.834C25.8277 47.5242 26.4825 44.2467 27.7584 41.1927C29.0343 38.1388 30.9057 35.3695 33.2633 33.0465C37.9383 28.418 44.2535 25.8255 50.8321 25.834Z" stroke="#00804D" stroke-width="1.66667" stroke-linecap="round" stroke-linejoin="round"/>
</svg>
