<svg width="27" height="27" viewBox="0 0 27 27" fill="none" xmlns="http://www.w3.org/2000/svg">
<path d="M24.7911 8.33398C22.8617 3.91898 18.4561 0.833984 13.3311 0.833984C8.20609 0.833984 3.79984 3.91898 1.87109 8.33398" stroke="white" stroke-width="1.66667" stroke-linecap="round" stroke-linejoin="round"/>
<path d="M13.332 7.08398C12.143 8.24651 11.1987 9.63523 10.5547 11.1683C9.91063 12.7015 9.57993 14.348 9.58204 16.0109C9.58204 16.3234 9.5935 16.6334 9.61642 16.9409C10.7952 18.1023 11.7308 19.4868 12.3687 21.0137C13.0067 22.5406 13.3341 24.1792 13.332 25.834C13.3299 24.1791 13.6573 22.5403 14.2952 21.0134C14.9332 19.4864 15.8689 18.1017 17.0477 16.9402C17.0706 16.6336 17.082 16.3238 17.082 16.0109C17.0842 14.348 16.7535 12.7015 16.1094 11.1683C15.4654 9.63523 14.5211 8.24651 13.332 7.08398Z" stroke="white" stroke-width="1.66667" stroke-linecap="round" stroke-linejoin="round"/>
<path d="M0.832031 13.334C0.832031 20.2377 6.42828 25.834 13.332 25.834C13.3342 24.1791 13.0068 22.5404 12.3688 21.0134C11.7309 19.4864 10.7952 18.1017 9.61641 16.9402C7.27893 14.626 4.12133 13.3297 0.832031 13.334Z" stroke="white" stroke-width="1.66667" stroke-linecap="round" stroke-linejoin="round"/>
<path d="M25.832 13.334C25.832 20.2377 20.2358 25.834 13.332 25.834C13.3299 24.1791 13.6573 22.5404 14.2952 21.0134C14.9332 19.4864 15.8689 18.1017 17.0477 16.9402C19.3851 14.626 22.5427 13.3297 25.832 13.334Z" stroke="white" stroke-width="1.66667" stroke-linecap="round" stroke-linejoin="round"/>
</svg>
