<svg width="60" height="60" viewBox="0 0 60 60" fill="none" xmlns="http://www.w3.org/2000/svg">
<path d="M28.2094 13.9875L17.2781 26.1375C16.8469 26.6156 16.8656 27.3563 17.325 27.8156C20.1844 30.675 24.825 30.675 27.6844 27.8156L30.6656 24.8344C31.0594 24.4406 31.5562 24.225 32.0625 24.1875C32.7 24.1313 33.3563 24.3469 33.8438 24.8344L50.4 41.25L57 36V9L46.5 15L44.2688 13.5094C42.7883 12.5247 41.0499 11.9996 39.2719 12H32.6719C32.5688 12 32.4563 12 32.3531 12.0094C30.7688 12.0938 29.2781 12.8062 28.2094 13.9875ZM13.9313 23.1281L23.9437 12H20.2313C17.8406 12 15.5531 12.9469 13.8656 14.6344L13.5 15L3 9V36L17.6625 48.2156C19.8187 50.0156 22.5375 51 25.3406 51H26.8125L26.1562 50.3438C25.275 49.4625 25.275 48.0375 26.1562 47.1656C27.0375 46.2938 28.4625 46.2844 29.3344 47.1656L33.1781 51.0094H34.0219C35.8125 51.0094 37.5656 50.6062 39.1594 49.8562L36.6562 47.3438C35.775 46.4625 35.775 45.0375 36.6562 44.1656C37.5375 43.2938 38.9625 43.2844 39.8344 44.1656L42.8344 47.1656L44.475 45.525C45.3094 44.6906 45.5531 43.4813 45.1875 42.4219L32.2594 29.5969L30.8625 30.9938C26.2406 35.6156 18.7594 35.6156 14.1375 30.9938C11.9813 28.8375 11.8969 25.3781 13.9313 23.1188V23.1281Z" fill="white"/>
</svg>
