<svg width="34" height="34" viewBox="0 0 34 34" fill="none" xmlns="http://www.w3.org/2000/svg">
<path d="M29.9334 10.8667C29.9667 10.5833 30 10.2833 30 10C30 6.03334 26.4334 2.85 22.4667 3.4C21.3167 1.35 19.1167 0 16.6667 0C14.2167 0 12.0167 1.33333 10.8667 3.4C6.90001 2.86667 3.33334 6.05 3.33334 10C3.33334 10.2833 3.35 10.5833 3.4 10.8667C1.35 12.0167 0 14.2167 0 16.6667C0 19.1167 1.33333 21.3167 3.4 22.4667C3.36667 22.75 3.33334 23.05 3.33334 23.3334C3.33334 27.3 6.90001 30.4834 10.8667 29.9334C12.0167 31.9834 14.2167 33.3334 16.6667 33.3334C19.1167 33.3334 21.3167 32 22.4667 29.9334C26.4334 30.4667 30 27.2834 30 23.3334C30 23.05 29.9834 22.75 29.9334 22.4667C31.9834 21.3167 33.3334 19.1167 33.3334 16.6667C33.3334 14.2167 32 12.0167 29.9334 10.8667ZM27.5334 19.8667L25.7 20.35L26.4167 22.1C26.5667 22.4834 26.65 22.9 26.65 23.3167C26.65 25.15 25.15 26.65 23.3167 26.65C22.9 26.65 22.4834 26.5667 22.1 26.4L20.35 25.6834L19.8667 27.5167C19.4833 28.9667 18.1667 29.9834 16.6667 29.9834C15.1667 29.9834 13.85 28.9667 13.4667 27.5167L12.9833 25.6834L11.2333 26.4C10.85 26.55 10.4333 26.65 10.0167 26.65C8.18334 26.65 6.68334 25.15 6.68334 23.3167C6.68334 22.9 6.76667 22.4834 6.91667 22.1L7.63334 20.35L5.8 19.8667C4.35 19.4833 3.33334 18.1667 3.33334 16.6667C3.33334 15.1667 4.35 13.85 5.8 13.4667L7.63334 12.9833L6.91667 11.2333C6.76667 10.85 6.68334 10.4333 6.68334 10.0167C6.68334 8.18334 8.18334 6.68334 10.0167 6.68334C10.4333 6.68334 10.85 6.76667 11.2333 6.93334L12.9833 7.65001L13.4667 5.81667C13.85 4.36667 15.1667 3.35 16.6667 3.35C18.1667 3.35 19.4833 4.36667 19.8667 5.81667L20.35 7.65001L22.1 6.93334C22.4834 6.78334 22.9 6.68334 23.3167 6.68334C25.15 6.68334 26.65 8.18334 26.65 10.0167C26.65 10.4333 26.5667 10.85 26.4167 11.2333L25.7 12.9833L27.5334 13.4667C28.9834 13.85 30 15.1667 30 16.6667C30 18.1667 28.9834 19.4833 27.5334 19.8667Z" fill="white"/>
</svg>
