<svg width="30" height="30" viewBox="0 0 30 30" fill="none" xmlns="http://www.w3.org/2000/svg">
<path d="M2.5 12.5C3.475 7.73 7.0875 3.9125 11.7575 2.6125C12.15 2.50375 12.345 2.44875 12.4513 2.565C12.5575 2.6825 12.4788 2.875 12.3238 3.2625L11.25 5.625M17.5 2.5C22.27 3.475 26.0875 7.0875 27.3875 11.7575C27.4962 12.15 27.5512 12.345 27.435 12.4513C27.3175 12.5575 27.125 12.4788 26.7375 12.3238L24.375 11.25M27.5 17.5C26.525 22.27 22.9125 26.0875 18.2425 27.3875C17.85 27.4962 17.655 27.5512 17.5487 27.435C17.4425 27.3175 17.5212 27.125 17.6762 26.7375L18.75 24.375M12.5 27.5C7.73 26.525 3.9125 22.9125 2.6125 18.2425C2.50375 17.85 2.44875 17.655 2.565 17.5487C2.6825 17.4425 2.875 17.5212 3.2625 17.6762L5.625 18.75" stroke="white" stroke-width="1.875" stroke-linecap="round"/>
<path d="M10.7664 14.5812L15.1401 8.9662C15.4826 8.52745 16.1239 8.8012 16.1239 9.3862V13.7312C16.1239 14.0812 16.3739 14.3662 16.6851 14.3662H18.8126C19.2951 14.3662 19.5526 15.0087 19.2339 15.4187L14.8601 21.0337C14.5176 21.4725 13.8764 21.1987 13.8764 20.6137V16.2687C13.8764 15.9187 13.6264 15.6337 13.3151 15.6337H11.1876C10.7051 15.6337 10.4464 14.9912 10.7664 14.5812Z" stroke="white" stroke-width="1.875" stroke-linecap="round" stroke-linejoin="round"/>
</svg>
