<svg width="120" height="96" viewBox="0 0 120 96" fill="none" xmlns="http://www.w3.org/2000/svg">
<g opacity="0.4">
<path d="M43.35 89.75H10C7.95 89.75 6.25 88.05 6.25 86V56C6.25 48.4 12.4 42.25 20 42.25H43.35C45.4 42.25 47.1 43.95 47.1 46V86C47.1 88.05 45.4 89.75 43.35 89.75ZM13.75 82.25H39.6V49.75H20C16.55 49.75 13.75 52.55 13.75 56V82.25Z" fill="#FDCC0D"/>
<path d="M76.6508 89.75H43.3008C41.2508 89.75 39.5508 88.05 39.5508 86V36C39.5508 28.4 45.7008 22.25 53.3008 22.25H66.6508C74.2508 22.25 80.4008 28.4 80.4008 36V86C80.4008 88.05 78.7508 89.75 76.6508 89.75ZM47.1008 82.25H72.9508V36C72.9508 32.55 70.1508 29.75 66.7008 29.75H53.3508C49.9008 29.75 47.1008 32.55 47.1008 36V82.25Z" fill="#FDCC0D"/>
<path d="M109.998 89.75H76.6484C74.5984 89.75 72.8984 88.05 72.8984 86V61C72.8984 58.95 74.5984 57.25 76.6484 57.25H99.9984C107.598 57.25 113.748 63.4 113.748 71V86C113.748 88.05 112.048 89.75 109.998 89.75ZM80.3984 82.25H106.248V71C106.248 67.55 103.448 64.75 99.9984 64.75H80.3984V82.25Z" fill="#FDCC0D"/>
<path d="M68.4985 17.7492C67.2985 17.7492 65.7985 17.3991 64.0985 16.3991L59.9985 13.9491L55.9485 16.3492C51.8485 18.7992 49.1485 17.3492 48.1485 16.6492C47.1485 15.9492 44.9985 13.7492 46.0485 9.14919L46.9985 4.9991L43.5985 1.59914C41.4985 -0.50086 40.7485 -3.00089 41.4985 -5.30089C42.2485 -7.60089 44.2985 -9.20091 47.1985 -9.70091L51.5485 -10.4509L53.9985 -15.3508C56.6985 -20.7008 63.2485 -20.7008 65.8985 -15.3508L68.3485 -10.4509L72.6985 -9.70091C75.5985 -9.20091 77.6985 -7.60089 78.3985 -5.30089C79.1485 -3.00089 78.3485 -0.50086 76.2985 1.59914L72.8985 4.9991L73.8485 9.14919C74.8985 13.7992 72.7485 15.9492 71.7485 16.6992C71.2985 17.0992 70.1485 17.7492 68.4985 17.7492ZM59.9985 6.3991C61.1985 6.3991 62.3985 6.69921 63.3985 7.29921L66.1985 8.94915L65.5985 6.2491C65.0985 4.1491 65.8485 1.59915 67.3985 0.0491524L69.9485 -2.5009L66.7985 -3.05082C64.7985 -3.40082 62.8485 -4.85083 61.9485 -6.65083L59.9985 -10.4008L58.0985 -6.65083C57.1985 -4.85083 55.2485 -3.40082 53.2485 -3.05082L50.0985 -2.55079L52.6485 -0.000896454C54.1985 1.5491 54.8985 4.09921 54.4485 6.19921L53.8485 8.8991L56.6485 7.24916C57.5985 6.64916 58.7985 6.3991 59.9985 6.3991Z" fill="#FDCC0D"/>
</g>
</svg>
