<svg width="120" height="96" viewBox="0 0 120 96" fill="none" xmlns="http://www.w3.org/2000/svg">
<g opacity="0.4">
<path d="M100 31C100 55.85 79.85 76 55 76C30.15 76 10 55.85 10 31C10 6.15 30.15 -14 55 -14" stroke="#FDCC0D" stroke-width="7.5" stroke-linecap="round" stroke-linejoin="round"/>
<path d="M67.4996 6.64943C65.7496 1.14943 67.7996 -5.70057 73.5996 -7.55057C76.6496 -8.55057 80.3996 -7.70057 82.5496 -4.75057C84.5496 -7.80057 88.4496 -8.50057 91.4496 -7.55057C97.2496 -5.70057 99.2996 1.14943 97.5496 6.64943C94.7996 15.3994 85.1996 19.9494 82.5496 19.9494C79.8496 19.9494 70.3496 15.4994 67.4996 6.64943Z" stroke="#FDCC0D" stroke-width="7.5" stroke-linecap="round" stroke-linejoin="round"/>
<path d="M94.6501 79.4481C97.3001 87.4481 103.35 88.2481 108 81.2481C112.25 74.8481 109.45 69.5981 101.75 69.5981C96.0501 69.5481 92.8501 73.9981 94.6501 79.4481Z" stroke="#FDCC0D" stroke-width="7.5" stroke-linecap="round" stroke-linejoin="round"/>
</g>
</svg>
